<?xml version="1.0" encoding="UTF-8" standalone="no"?>
<!-- Created with Inkscape (http://www.inkscape.org/) -->

<svg
   xmlns:dc="http://purl.org/dc/elements/1.1/"
   xmlns:cc="http://creativecommons.org/ns#"
   xmlns:rdf="http://www.w3.org/1999/02/22-rdf-syntax-ns#"
   xmlns:svg="http://www.w3.org/2000/svg"
   xmlns="http://www.w3.org/2000/svg"
   xmlns:sodipodi="http://sodipodi.sourceforge.net/DTD/sodipodi-0.dtd"
   xmlns:inkscape="http://www.inkscape.org/namespaces/inkscape"
   width="145.95979mm"
   height="169.85828mm"
   viewBox="0 0 517.18037 601.86003"
   id="svg4784"
   version="1.1"
   inkscape:version="0.91 r13725"
   sodipodi:docname="radiator.svg">
  <defs
     id="defs4786" />
  <sodipodi:namedview
     id="base"
     pagecolor="#ffffff"
     bordercolor="#666666"
     borderopacity="1.0"
     inkscape:pageopacity="0.0"
     inkscape:pageshadow="2"
     inkscape:zoom="0.7"
     inkscape:cx="146.23107"
     inkscape:cy="459.27157"
     inkscape:document-units="px"
     inkscape:current-layer="layer1"
     showgrid="false"
     fit-margin-top="0"
     fit-margin-left="0"
     fit-margin-right="0"
     fit-margin-bottom="0"
     inkscape:window-width="1920"
     inkscape:window-height="1017"
     inkscape:window-x="-8"
     inkscape:window-y="-8"
     inkscape:window-maximized="1" />
  <metadata
     id="metadata4789">
    <rdf:RDF>
      <cc:Work
         rdf:about="">
        <dc:format>image/svg+xml</dc:format>
        <dc:type
           rdf:resource="http://purl.org/dc/dcmitype/StillImage" />
        <dc:title></dc:title>
      </cc:Work>
    </rdf:RDF>
  </metadata>
  <g
     inkscape:label="Ebene 1"
     inkscape:groupmode="layer"
     id="layer1"
     transform="translate(-136.57905,-254.36238)">
    <path
       style="fill:#ffffff;stroke:none"
       d="m 161.67536,854.43733 c -13.09873,-4.4642 -22.21446,-15.40974 -24.34347,-29.22998 -0.61725,-4.00678 -0.87467,-72.12416 -0.69854,-184.84497 l 0.27892,-178.5 2.40379,-5.96901 c 3.0318,-7.52846 10.94117,-15.65503 18.6888,-19.20201 18.505,-8.47187 40.21488,0.54947 47.79669,19.86148 l 2.62665,6.69047 -0.25797,182.80953 -0.25796,182.80954 -2.80075,6 c -7.86237,16.84342 -26.63181,25.30206 -43.43616,19.57495 z"
       id="path5503"
       inkscape:connector-curvature="0" />
    <path
       style="fill:#ffffff;stroke:none"
       d="m 251.91227,855.57944 c -6.79676,-0.6619 -15.89389,-4.72745 -20.9837,-9.3777 -6.97374,-6.3715 -10.29248,-12.82326 -11.56828,-22.48925 -0.69122,-5.23701 -0.93824,-66.93536 -0.74207,-185.35011 l 0.29405,-177.5 2.86933,-6.2116 c 3.84571,-8.3253 12.09226,-16.19303 20.13457,-19.20965 8.70873,-3.2666 20.78002,-2.72757 28.4961,1.27246 7.57603,3.92742 12.54002,8.98943 16.3058,16.62776 l 3.1942,6.47898 0,184.54205 0,184.54205 -3.292,6.687 c -3.7333,7.58341 -9.1023,12.80465 -16.91448,16.44895 -5.51068,2.57067 -12.81641,4.02375 -17.79352,3.53906 z"
       id="path5501"
       inkscape:connector-curvature="0" />
    <path
       style="fill:#ffffff;stroke:none"
       d="m 329.81936,854.38191 c -10.40661,-2.19072 -20.48482,-9.98845 -25.43489,-19.67954 l -2.4722,-4.83999 0,-186 0,-186 3.16848,-6.05999 c 3.79189,-7.25232 8.91646,-12.11133 16.8849,-16.00993 5.17833,-2.53352 6.99893,-2.88463 14.95774,-2.88463 8.06894,0 9.70651,0.3262 14.94635,2.97728 11.52116,5.82909 18.74369,15.90425 20.59956,28.73563 0.50948,3.52253 0.90276,81.60748 0.90276,179.24164 0,97.63416 -0.39328,175.71911 -0.90276,179.24164 -1.87282,12.94862 -9.22123,23.08664 -20.55703,28.36092 -6.65172,3.0949 -15.62177,4.27923 -22.09291,2.91697 z"
       id="path5499"
       inkscape:connector-curvature="0" />
    <path
       style="fill:#ffffff;stroke:none"
       d="m 407.41227,852.63512 c -9.04631,-3.15487 -15.98451,-9.2959 -20.64474,-18.27274 l -2.85526,-5.5 0,-185.5 0,-185.5 2.85121,-5.5 c 3.63148,-7.00515 8.68749,-12.27518 15.64879,-16.31121 5.27521,-3.05846 5.94958,-3.18879 16.5,-3.18879 10.31693,0 11.33156,0.18366 16.33936,2.95756 7.45108,4.12729 14.3224,11.97335 17.25528,19.70304 l 2.40536,6.3394 0,181 0,181 -2.86775,7.79469 c -2.48664,6.75881 -3.6532,8.48646 -8.77794,13 -7.61369,6.70565 -15.00448,9.6113 -24.35431,9.57477 -3.85,-0.015 -9.025,-0.73357 -11.5,-1.59672 z"
       id="path5497"
       inkscape:connector-curvature="0" />
    <path
       style="fill:#ffffff;stroke:none"
       d="m 492.66294,852.81724 c -2.88713,-0.77744 -6.9482,-2.28023 -9.02461,-3.33953 -5.00456,-2.55314 -12.22807,-10.41184 -15.27236,-16.61533 l -2.4537,-5 -0.2606,-182.95762 c -0.22681,-159.23087 -0.0684,-183.61154 1.22134,-188 6.21658,-21.15223 30.99307,-31.5141 50.97678,-21.31918 6.57224,3.35291 13.86347,11.63291 16.62464,18.87913 l 2.43784,6.39767 0,182 0,182 -2.5583,6.06317 c -4.82293,11.43039 -13.31392,19.0522 -24.4018,21.90393 -7.18034,1.84674 -10.39406,1.84446 -17.28923,-0.0122 z"
       id="path5495"
       inkscape:connector-curvature="0" />
    <path
       style="fill:#ffffff;stroke:none"
       d="m 571.71211,851.50027 c -9.98214,-3.44913 -16.09683,-8.95088 -20.9638,-18.86237 l -2.83604,-5.77552 -0.29649,-181 c -0.215,-131.2456 0.0135,-182.64932 0.83114,-187 3.68085,-19.58536 25.09671,-32.15393 45.01556,-26.41879 5.86361,1.68827 13.72969,6.91754 17.39149,11.56163 6.12519,7.76826 7.84651,14.23354 8.48166,31.85716 l 0.57664,16 6,0.5776 c 7.36078,0.7086 9.80553,1.92766 15.26196,7.61031 5.0103,5.21802 7.21547,9.27884 10.21568,18.81209 2.89611,9.20246 3.18991,27.06391 0.5913,35.94772 -5.39564,18.44599 -15.45085,28.55228 -28.40797,28.55228 l -4.10699,0 -0.27699,120.75 c -0.25936,113.06617 -0.39032,121.03635 -2.05792,125.25 -5.9603,15.06032 -18.74786,24.0128 -34.21907,23.95653 -3.3,-0.012 -8.34007,-0.83039 -11.20016,-1.81864 z"
       id="path5493"
       inkscape:connector-curvature="0" />
    <path
       style="fill:#ffffff;stroke:none"
       d="m 207.91227,411.95987 c -4.45048,-1.96449 -6.68057,-5.00099 -7.20244,-9.80691 -0.42869,-3.94772 0.0565,-5.07993 6.07188,-14.16872 9.13538,-13.80287 13.68298,-24.93822 14.34352,-35.12186 0.69607,-10.73138 -0.49862,-14.44323 -8.58134,-26.66187 -14.24462,-21.53359 -16.06316,-39.62826 -5.75113,-57.22441 7.55106,-12.88491 15.82497,-17.43152 23.05208,-12.66738 7.19607,4.74368 7.44433,14.39845 0.52858,20.55602 -3.43078,3.05466 -5.91478,9.41632 -5.93919,15.21062 -0.0274,6.49761 2.62483,13.35869 8.3108,21.49953 7.31798,10.47745 10.44898,17.67413 11.82259,27.17447 2.38339,16.48434 -2.00813,34.48449 -12.74366,52.23431 -7.45314,12.32281 -10.59661,16.17524 -14.97741,18.35538 -4.72862,2.35322 -4.97136,2.37009 -8.93428,0.62082 z"
       id="path5491"
       inkscape:connector-curvature="0" />
    <path
       style="fill:#ffffff;stroke:none"
       d="m 314.95395,412.63294 c -5.33565,-1.35534 -9.54168,-6.86535 -9.54168,-12.49988 0,-1.26145 1.53074,-4.53841 3.40165,-7.28212 6.83634,-10.02557 10.88215,-17.15295 13.90076,-24.48856 2.75515,-6.69536 3.09223,-8.62649 3.14193,-18 0.0548,-10.33854 -0.002,-10.60312 -3.71869,-17.20604 -2.0759,-3.68831 -4.20244,-6.9706 -4.72565,-7.29396 -1.88732,-1.16643 -7.86792,-13.14706 -9.91156,-19.85534 -4.02236,-13.20343 -1.84686,-27.78848 5.86821,-39.34188 4.43441,-6.64059 11.57107,-12.30278 15.50649,-12.30278 5.5936,0 11.10634,4.80513 11.55233,10.06949 0.42817,5.054 -0.12632,6.60132 -4.08035,11.38624 -2.23568,2.70548 -4.71068,6.46469 -5.5,8.35379 -3.2711,7.82885 -1.02951,17.34757 6.87416,29.19048 10.96074,16.42366 13.33834,24.09945 12.38421,39.98097 -0.74582,12.4143 -2.64707,19.16788 -9.00506,31.98754 -6.82617,13.76367 -13.9779,23.43212 -19.25415,26.0298 -2.23615,1.10093 -4.26115,1.94949 -4.5,1.88569 -0.23886,-0.0638 -1.31552,-0.33985 -2.3926,-0.61344 z"
       id="path5489"
       inkscape:connector-curvature="0" />
    <path
       style="fill:#ffffff;stroke:none"
       d="m 419.67075,412.65774 c -3.32312,-0.64084 -8.09389,-5.90111 -8.80897,-9.71281 -0.7237,-3.85765 0.35794,-6.28021 7.65154,-17.13727 6.34193,-9.44044 10.80699,-19.95574 12.42145,-29.2527 1.97568,-11.37715 0.25154,-17.80347 -8.1528,-30.3877 -3.68554,-5.51855 -7.79005,-13.01974 -9.12111,-16.66931 -6.69574,-18.35861 -2.29663,-37.57945 11.48332,-50.17355 5.41913,-4.95277 5.861,-5.15532 10.18406,-4.66804 3.41567,0.38499 5.19344,1.26403 7.2806,3.59997 5.38745,6.02961 5.00958,10.19647 -1.65925,18.29704 -5.71024,6.93618 -7.4428,13.36948 -5.6714,21.05899 1.11453,4.83809 3.12054,8.59272 12.68903,23.75 5.12631,8.1205 7.44801,16.90388 7.4297,28.10781 -0.0199,12.20086 -2.531,22.04959 -9.0155,35.36012 -7.00654,14.38211 -14.76046,24.83129 -19.97442,26.9175 -2.21936,0.88801 -4.1386,1.55329 -4.26497,1.47839 -0.12637,-0.0749 -1.23844,-0.3307 -2.47128,-0.56844 z"
       id="path5487"
       inkscape:connector-curvature="0" />
    <path
       style="fill:#ffffff;stroke:none"
       d="m 524.67075,412.63214 c -3.06186,-0.55554 -7.89391,-5.58236 -8.5214,-8.86488 -0.78739,-4.11893 0.72906,-7.99403 6.2583,-15.99235 10.48351,-15.16494 16.08509,-32.14312 14.11096,-42.76983 -1.36273,-7.33555 -2.59972,-10.13923 -7.6795,-17.40593 -12.2892,-17.5798 -15.47755,-31.019 -11.3252,-47.73677 2.32373,-9.35559 11.50148,-21.85033 18.03864,-24.5581 4.03169,-1.66998 9.04018,-0.40675 12.43456,3.13622 2.38323,2.48756 2.92496,3.92104 2.92408,7.73754 -9.5e-4,4.10625 -0.58548,5.39671 -4.73658,10.45678 -5.07499,6.18626 -6.18985,8.93373 -6.17901,15.22756 0.0127,7.36946 1.45267,11.34631 7.31433,20.20033 10.80494,16.32086 13.49942,23.89572 13.44584,37.79967 -0.0603,15.65559 -5.48213,31.17281 -16.95658,48.52982 -8.07261,12.21115 -12.4304,15.45528 -19.12844,14.24 z"
       id="path5483"
       inkscape:connector-curvature="0" />
  </g>
</svg>
