<?xml version="1.0" encoding="UTF-8" standalone="no"?>
<!-- Created with Inkscape (http://www.inkscape.org/) -->

<svg
   xmlns:dc="http://purl.org/dc/elements/1.1/"
   xmlns:cc="http://creativecommons.org/ns#"
   xmlns:rdf="http://www.w3.org/1999/02/22-rdf-syntax-ns#"
   xmlns:svg="http://www.w3.org/2000/svg"
   xmlns="http://www.w3.org/2000/svg"
   xmlns:sodipodi="http://sodipodi.sourceforge.net/DTD/sodipodi-0.dtd"
   xmlns:inkscape="http://www.inkscape.org/namespaces/inkscape"
   id="svg4136"
   version="1.1"
   inkscape:version="0.91 r13725"
   width="69.300003"
   height="59.700001"
   viewBox="0 0 69.300003 59.700001"
   sodipodi:docname="roofwindow_closed.svg">
  <metadata
     id="metadata4142">
    <rdf:RDF>
      <cc:Work
         rdf:about="">
        <dc:format>image/svg+xml</dc:format>
        <dc:type
           rdf:resource="http://purl.org/dc/dcmitype/StillImage" />
        <dc:title></dc:title>
      </cc:Work>
    </rdf:RDF>
  </metadata>
  <defs
     id="defs4140" />
  <sodipodi:namedview
     pagecolor="#ffffff"
     bordercolor="#666666"
     borderopacity="1"
     objecttolerance="10"
     gridtolerance="10"
     guidetolerance="10"
     inkscape:pageopacity="0"
     inkscape:pageshadow="2"
     inkscape:window-width="1366"
     inkscape:window-height="705"
     id="namedview4138"
     showgrid="false"
     inkscape:zoom="6.2774973"
     inkscape:cx="37.240865"
     inkscape:cy="27.953887"
     inkscape:window-x="-8"
     inkscape:window-y="-8"
     inkscape:window-maximized="1"
     inkscape:current-layer="g4792" />
  <g
     id="g4792">
    <path
       id="path4164"
       style="fill:none;fill-rule:evenodd;stroke:#000000;stroke-width:0.5;stroke-linecap:butt;stroke-linejoin:miter;stroke-miterlimit:4;stroke-dasharray:none;stroke-opacity:1"
       d="M 12.897453,43.873868 39.48085,7.2090567 61.051699,12.784811 M 6.3079246,43.423303 8.3073114,47.112312 37.875708,58.503184 m -2.232523,-3.940581 2.190364,3.74353 L 68.57052,11.264151 66.840929,7.7286522 M 37.435301,0.83896395 66.666695,7.7684771 35.76266,54.602428 6.4768869,43.423302 Z M 9.1239624,42.691133 38.410755,2.9286793 63.774422,8.8463612 35.256793,52.603586 Z" />
    <path
       style="fill:#ffffff;fill-opacity:1;stroke:#000000;stroke-width:0.05632076;stroke-linejoin:miter;stroke-miterlimit:4;stroke-dasharray:none;stroke-opacity:1"
       d="m 11.058336,43.124634 -1.485345,-0.566998 0.927728,-1.255227 c 0.510251,-0.690375 7.023219,-9.530155 14.473263,-19.643954 7.450044,-10.1138 13.573947,-18.3887268 13.608674,-18.3887268 0.06047,0 19.431202,4.5207726 22.986482,5.364623 1.167205,0.2770373 1.691241,0.447981 1.638534,0.5344991 -0.04262,0.069959 -0.545992,0.8463767 -1.118605,1.7253727 L 61.047951,12.492397 60.28157,12.28193 C 59.860061,12.166174 56.752657,11.360094 53.376228,10.490642 49.999799,9.62119 45.466811,8.4534216 43.302923,7.8956009 39.656263,6.9555423 39.358268,6.8955348 39.227553,7.0749417 39.149988,7.1813997 33.148642,15.454724 25.891228,25.460106 18.633816,35.465488 12.661675,43.660692 12.619806,43.671671 c -0.04187,0.01098 -0.744531,-0.235188 -1.56147,-0.547037 z"
       id="path4923"
       inkscape:connector-curvature="0" />
    <path
       style="fill:#ffffff;fill-opacity:1;stroke:#000000;stroke-width:0.05632076;stroke-linejoin:miter;stroke-miterlimit:4;stroke-dasharray:none;stroke-opacity:1"
       d="M 33.438681,53.40733 C 32.354506,52.988319 28.375445,51.464854 24.596322,50.021852 20.817199,48.57885 16.103152,46.777029 14.120661,46.017804 12.138171,45.25858 9.718705,44.339583 8.7440709,43.975591 7.7694367,43.611598 6.9837622,43.277701 6.9981275,43.233596 7.0124928,43.189492 13.867218,33.742634 22.23085,22.240577 30.594482,10.738521 37.462798,1.2885389 37.493775,1.2406167 c 0.03098,-0.047922 1.323538,0.2145226 2.872358,0.5832104 2.429152,0.5782454 15.682542,3.7240702 23.288633,5.5277899 1.347474,0.319542 2.449953,0.6156607 2.449953,0.6580415 0,0.1919262 -30.398438,46.1200775 -30.537733,46.1386105 -0.08639,0.01149 -1.044131,-0.32193 -2.128305,-0.740939 z m 3.956902,-3.537462 C 38.487704,48.18456 44.937026,38.279743 51.727407,27.859162 58.517789,17.438581 64.087041,8.8521477 64.103524,8.7781993 64.140291,8.6132421 64.786861,8.7749878 54.502643,6.3764454 40.098191,3.016959 38.341228,2.613759 38.277688,2.6530294 38.152415,2.730452 8.8253387,42.595806 8.7949177,42.730023 c -0.019648,0.08669 0.6830464,0.408092 1.8585853,0.850095 2.185961,0.821923 9.182556,3.476539 18.279517,6.93553 3.500335,1.330953 6.38959,2.419578 6.420566,2.419165 0.03098,-4.5e-4 0.949876,-1.379637 2.041997,-3.064945 z"
       id="path4925"
       inkscape:connector-curvature="0" />
    <path
       style="fill:#ffffff;fill-opacity:1;stroke:#000000;stroke-width:0.05632076;stroke-linejoin:miter;stroke-miterlimit:4;stroke-dasharray:none;stroke-opacity:1"
       d="m 36.930567,56.195686 c -0.464646,-0.809515 -0.836446,-1.504674 -0.826223,-1.544798 0.01022,-0.04012 1.792735,-2.759452 3.961136,-6.042952 2.168402,-3.2835 9.042304,-13.700023 15.275339,-23.14783 6.233033,-9.447807 11.369527,-17.1573129 11.414429,-17.1322356 0.0449,0.025077 0.393973,0.694189 0.775712,1.4869151 L 68.225032,11.256106 53.0782,34.437682 c -8.330758,12.749866 -15.18193,23.192437 -15.224827,23.205713 -0.0429,0.01328 -0.458159,-0.638193 -0.922806,-1.447709 z"
       id="path4927"
       inkscape:connector-curvature="0" />
    <path
       style="fill:#ffffff;fill-opacity:1;stroke:#000000;stroke-width:0.05632076;stroke-linejoin:miter;stroke-miterlimit:4;stroke-dasharray:none;stroke-opacity:1"
       d="M 32.424907,56.103061 C 29.915817,55.129344 24.010586,52.848042 19.302171,51.0335 14.593756,49.218959 10.234529,47.537454 9.615001,47.296822 L 8.4885858,46.859308 7.7251444,45.43697 C 7.3052516,44.654683 6.9782895,43.998044 6.998562,43.977771 c 0.031071,-0.03107 6.568307,2.44822 20.864364,7.912952 1.54882,0.592044 3.8805,1.483127 5.181509,1.980184 1.30101,0.497057 2.402,0.960858 2.446646,1.030668 0.6715,1.04999 1.735075,2.995999 1.631744,2.985583 -0.07477,-0.0075 -2.188828,-0.81038 -4.697918,-1.784097 z"
       id="path4929"
       inkscape:connector-curvature="0" />
  </g>
</svg>
