<?xml version="1.0" encoding="UTF-8" standalone="no"?>
<!-- Created with Inkscape (http://www.inkscape.org/) -->

<svg
   xmlns:dc="http://purl.org/dc/elements/1.1/"
   xmlns:cc="http://creativecommons.org/ns#"
   xmlns:rdf="http://www.w3.org/1999/02/22-rdf-syntax-ns#"
   xmlns:svg="http://www.w3.org/2000/svg"
   xmlns="http://www.w3.org/2000/svg"
   xmlns:sodipodi="http://sodipodi.sourceforge.net/DTD/sodipodi-0.dtd"
   xmlns:inkscape="http://www.inkscape.org/namespaces/inkscape"
   id="svg4725"
   version="1.1"
   inkscape:version="0.91 r13725"
   width="69.300003"
   height="59.700001"
   viewBox="0 0 69.300003 59.700001"
   sodipodi:docname="roofwindow_open.svg">
  <metadata
     id="metadata4731">
    <rdf:RDF>
      <cc:Work
         rdf:about="">
        <dc:format>image/svg+xml</dc:format>
        <dc:type
           rdf:resource="http://purl.org/dc/dcmitype/StillImage" />
      </cc:Work>
    </rdf:RDF>
  </metadata>
  <defs
     id="defs4729" />
  <sodipodi:namedview
     pagecolor="#ffffff"
     bordercolor="#666666"
     borderopacity="1"
     objecttolerance="10"
     gridtolerance="10"
     guidetolerance="10"
     inkscape:pageopacity="0"
     inkscape:pageshadow="2"
     inkscape:window-width="1366"
     inkscape:window-height="705"
     id="namedview4727"
     showgrid="false"
     inkscape:zoom="5.6568543"
     inkscape:cx="22.392066"
     inkscape:cy="39.457823"
     inkscape:window-x="-8"
     inkscape:window-y="-8"
     inkscape:window-maximized="1"
     inkscape:current-layer="svg4725" />
  <path
     style="fill:none;fill-rule:evenodd;stroke:#000000;stroke-width:0.5;stroke-linecap:butt;stroke-linejoin:miter;stroke-miterlimit:4;stroke-dasharray:none;stroke-opacity:1"
     d="m 35.682708,54.518102 2.190364,3.74353 30.856445,-46.997179 -2.039355,-3.6058993"
     id="path4160"
     inkscape:connector-curvature="0"
     sodipodi:nodetypes="cccc" />
  <path
     style="fill:none;fill-rule:evenodd;stroke:#000000;stroke-width:0.5;stroke-linecap:butt;stroke-linejoin:miter;stroke-miterlimit:4;stroke-dasharray:none;stroke-opacity:1"
     d="m 6.3474483,43.378802 1.999387,3.689009 29.5683957,11.390872"
     id="path4162"
     inkscape:connector-curvature="0"
     sodipodi:nodetypes="ccc" />
  <path
     style="fill:#ffffff;fill-rule:evenodd;stroke:#000000;stroke-width:0.5;stroke-linecap:butt;stroke-linejoin:miter;stroke-miterlimit:4;stroke-dasharray:none;stroke-opacity:1"
     d="M 0.56320755,33.060284 29.160485,43.55244 29.06151,40.381982 1.4164471,30.270929 0.61952831,30.018962 Z"
     id="path4762"
     inkscape:connector-curvature="0"
     sodipodi:nodetypes="cccccc" />
  <path
     style="fill:none;fill-rule:evenodd;stroke:#000000;stroke-width:0.5;stroke-linecap:butt;stroke-linejoin:miter;stroke-miterlimit:4;stroke-dasharray:none;stroke-opacity:1"
     d="M 6.3175877,43.635506 11.031466,37.159171"
     id="path4764"
     inkscape:connector-curvature="0"
     sodipodi:nodetypes="cc" />
  <path
     style="fill:none;fill-rule:evenodd;stroke:#000000;stroke-width:0.5;stroke-linecap:butt;stroke-linejoin:miter;stroke-miterlimit:4;stroke-dasharray:none;stroke-opacity:1"
     d="M 12.925613,37.608184 9.1380426,42.677052 35.165288,52.571364 63.898873,8.5649728 38.231797,3.1488016 0.52938665,29.899394"
     id="path4766"
     inkscape:connector-curvature="0"
     sodipodi:nodetypes="cccccc" />
  <path
     style="fill:none;fill-rule:evenodd;stroke:#000000;stroke-width:0.5;stroke-linecap:butt;stroke-linejoin:miter;stroke-miterlimit:4;stroke-dasharray:none;stroke-opacity:1"
     d="M 6.4768869,43.535944 35.603361,54.522778 66.506982,7.693659 37.51495,1.0779127 33.756511,6.3496938"
     id="path4768"
     inkscape:connector-curvature="0"
     sodipodi:nodetypes="ccccc" />
  <path
     style="fill:none;fill-rule:evenodd;stroke:#000000;stroke-width:0.5;stroke-linecap:butt;stroke-linejoin:miter;stroke-miterlimit:4;stroke-dasharray:none;stroke-opacity:1"
     d="M 29.109919,40.485956 63.95861,8.4853233"
     id="path4770"
     inkscape:connector-curvature="0"
     sodipodi:nodetypes="cc" />
  <path
     style="fill:none;fill-rule:evenodd;stroke:#000000;stroke-width:0.5;stroke-linecap:butt;stroke-linejoin:miter;stroke-miterlimit:4;stroke-dasharray:none;stroke-opacity:1"
     d="M 29.246968,43.722402 58.918343,16.211983"
     id="path4772"
     inkscape:connector-curvature="0"
     sodipodi:nodetypes="cc" />
  <path
     style="fill:none;fill-rule:evenodd;stroke:#000000;stroke-width:0.5;stroke-linecap:butt;stroke-linejoin:miter;stroke-opacity:1;stroke-miterlimit:4;stroke-dasharray:none"
     d="M 3.9424529,29.512076 38.709694,4.7417932 60.13543,9.5207678 28.514548,38.672513 Z"
     id="path4774"
     inkscape:connector-curvature="0" />
  <path
     style="fill:none;fill-rule:evenodd;stroke:#000000;stroke-width:0.5;stroke-linecap:butt;stroke-linejoin:miter;stroke-opacity:1;stroke-miterlimit:4;stroke-dasharray:none"
     d="m 12.784811,44.042831 3.71717,-5.18151"
     id="path4776"
     inkscape:connector-curvature="0" />
  <path
     style="fill:none;fill-rule:evenodd;stroke:#000000;stroke-width:0.5;stroke-linecap:butt;stroke-linejoin:miter;stroke-miterlimit:4;stroke-dasharray:none;stroke-opacity:1"
     d="M 19.149057,35.256793 39.100684,7.8567454"
     id="path4778"
     inkscape:connector-curvature="0"
     sodipodi:nodetypes="cc" />
  <path
     style="fill:none;fill-rule:evenodd;stroke:#000000;stroke-width:0.5;stroke-linecap:butt;stroke-linejoin:miter;stroke-miterlimit:4;stroke-dasharray:none;stroke-opacity:1"
     d="M 14.19283,33.285566 25.403076,17.614316"
     id="path4780"
     inkscape:connector-curvature="0"
     sodipodi:nodetypes="cc" />
  <path
     style="fill:none;fill-rule:evenodd;stroke:#000000;stroke-width:0.5;stroke-linecap:butt;stroke-linejoin:miter;stroke-miterlimit:4;stroke-dasharray:none;stroke-opacity:1"
     d="M 15.713491,33.848774 29.594556,14.690054"
     id="path4782"
     inkscape:connector-curvature="0"
     sodipodi:nodetypes="cc" />
  <path
     style="fill:none;fill-rule:evenodd;stroke:#000000;stroke-width:0.5;stroke-linecap:butt;stroke-linejoin:miter;stroke-miterlimit:4;stroke-dasharray:none;stroke-opacity:1"
     d="M 7.0400944,30.61033 38.945802,7.8567453 57.475331,11.96816"
     id="path4784"
     inkscape:connector-curvature="0"
     sodipodi:nodetypes="ccc" />
  <path
     style="fill:none;fill-rule:evenodd;stroke:#000000;stroke-width:0.5;stroke-linecap:butt;stroke-linejoin:miter;stroke-miterlimit:4;stroke-dasharray:none;stroke-opacity:1"
     d="M 5.8289138,30.250986 38.868993,6.8923317 58.263665,11.233234"
     id="path4786"
     inkscape:connector-curvature="0"
     sodipodi:nodetypes="ccc" />
  <path
     style="fill:none;fill-rule:evenodd;stroke:#000000;stroke-width:0.5;stroke-linecap:butt;stroke-linejoin:miter;stroke-opacity:1;stroke-miterlimit:4;stroke-dasharray:none"
     d="M 38.868993,7.8879514 38.709694,4.6621436"
     id="path4788"
     inkscape:connector-curvature="0" />
  <path
     style="fill:#ffffff;fill-opacity:1;stroke:none;stroke-width:0.5;stroke-linejoin:miter;stroke-miterlimit:4;stroke-dasharray:none;stroke-opacity:1"
     d="m 24.351753,15.55908 0,-0.271543 5.855469,-4.17175 c 3.220508,-2.2944625 6.395501,-4.5566502 7.05554,-5.0270835 0.66004,-0.4704333 1.204258,-0.8511475 1.209373,-0.8460317 0.0051,0.00512 0.02644,0.354841 0.04739,0.7771669 0.03178,0.6407571 0.03463,0.7711647 0.01719,0.7877966 -0.0115,0.010962 -0.734573,0.5242809 -1.606839,1.1407086 -2.501554,1.7678406 -4.955697,3.5027401 -8.171287,5.7765001 l -2.97715,2.10516 -0.714844,3.09e-4 -0.714844,3.1e-4 0,-0.271543 z"
     id="path4858"
     inkscape:connector-curvature="0" />
  <path
     style="fill:#ffffff;fill-opacity:1;stroke:none;stroke-width:0.5;stroke-linejoin:miter;stroke-miterlimit:4;stroke-dasharray:none;stroke-opacity:1"
     d="M 5.1375622,29.663043 C 4.8565952,29.553512 4.6136944,29.449834 4.5977827,29.432646 4.581871,29.415459 9.002378,26.242336 14.421132,22.381263 19.839886,18.520189 27.268724,13.224901 30.929661,10.613956 34.590599,8.0030106 37.785732,5.7280558 38.029957,5.5585007 l 0.444045,-0.3082821 0.03584,0.7630889 c 0.01971,0.4196989 0.01677,0.7807323 -0.0065,0.8022965 -0.02331,0.021564 -2.868949,2.034853 -6.323637,4.473975 -3.454687,2.439122 -10.785406,7.617573 -16.290486,11.507667 -5.50508,3.890095 -10.06133,7.07111 -10.125,7.068922 -0.06367,-0.0022 -0.3456458,-0.09359 -0.6266128,-0.203125 z"
     id="path4860"
     inkscape:connector-curvature="0" />
  <path
     style="fill:#ffffff;fill-opacity:1;stroke:none;stroke-width:0.5;stroke-linejoin:miter;stroke-miterlimit:4;stroke-dasharray:none;stroke-opacity:1"
     d="M 15.111392,34.976954 C 7.4646326,32.181377 1.2076201,29.865962 1.2069196,29.831587 1.2062191,29.797212 9.5520131,23.848792 19.753128,16.612874 L 38.300611,3.4566624 50.095101,5.9492158 c 6.48697,1.3709044 12.100692,2.5591337 12.474938,2.6405099 L 63.250488,8.737682 62.757539,9.1917299 C 54.098791,17.167175 29.157374,40.024783 29.097589,40.039454 c -0.04565,0.0112 -6.339438,-2.266924 -13.986197,-5.0625 z M 44.705758,24.144087 60.706292,9.3940867 60.235442,9.2573375 C 59.976473,9.1821255 55.011466,8.0621142 49.202091,6.7684234 l -10.5625,-2.352165 -7.875,5.6145626 c -4.33125,3.088009 -12.248438,8.731113 -17.59375,12.540231 -5.3453128,3.809117 -9.718216,6.958826 -9.7175629,6.999351 6.5e-4,0.04053 4.8803405,1.892594 10.8437499,4.115705 5.963409,2.223112 11.545688,4.313645 12.405063,4.645627 0.859375,0.331984 1.661642,0.594324 1.782817,0.582979 0.121174,-0.01134 7.420556,-6.658127 16.22085,-14.770627 z"
     id="path4884"
     inkscape:connector-curvature="0" />
  <path
     style="fill:#ffffff;fill-opacity:1;stroke:none;stroke-width:0.5;stroke-linejoin:miter;stroke-miterlimit:4;stroke-dasharray:none;stroke-opacity:1"
     d="M 50.158527,9.156007 C 45.777227,8.1735206 41.491497,7.213405 40.634683,7.0224167 39.777868,6.8314284 39.074716,6.6736162 39.072122,6.6717231 c -0.01014,-0.0074 -0.08027,-1.5810398 -0.07088,-1.5904298 0.0055,-0.00549 4.14641,0.9129897 9.202034,2.0410765 5.055624,1.1280869 9.669341,2.1570945 10.252704,2.2866836 0.583363,0.1295892 1.076857,0.242565 1.096654,0.2510573 0.02735,0.011733 -0.128411,0.1666558 -0.6487,0.6452073 -0.409157,0.376334 -0.703751,0.631228 -0.732052,0.633398 -0.02605,0.002 -3.632058,-0.800223 -8.013358,-1.782709 z"
     id="path4895"
     inkscape:connector-curvature="0" />
  <path
     style="fill:#ffffff;fill-opacity:1;stroke:none;stroke-width:0.5;stroke-linejoin:miter;stroke-miterlimit:4;stroke-dasharray:none;stroke-opacity:1"
     d="M 49.405288,9.9090371 C 45.054371,8.9416619 40.967515,8.0325768 40.323385,7.8888482 L 39.15224,7.6275233 39.124716,7.4321485 c -0.01514,-0.1074561 -0.02392,-0.1998521 -0.01951,-0.2053244 0.0044,-0.00547 4.18234,0.9242626 9.284298,2.0660776 5.101958,1.1418153 9.286018,2.0760273 9.29791,2.0760273 0.01189,0 -0.04584,0.06961 -0.128298,0.15468 -0.08246,0.08507 -0.17088,0.152342 -0.196495,0.149485 -0.02561,-0.0029 -3.606414,-0.796682 -7.95733,-1.7640569 z"
     id="path4897"
     inkscape:connector-curvature="0" />
  <path
     style="fill:#ffffff;fill-opacity:1;stroke:none;stroke-width:0.5;stroke-linejoin:miter;stroke-miterlimit:4;stroke-dasharray:none;stroke-opacity:1"
     d="m 17.526931,34.276656 c -0.724338,-0.276195 -1.32096,-0.526317 -1.325825,-0.555828 -0.0049,-0.02951 3.053809,-4.282912 6.797056,-9.452004 3.743246,-5.169091 6.79745,-9.426203 6.787118,-9.460249 -0.02312,-0.07619 7.936467,-5.7611713 7.990545,-5.707093 0.02133,0.021328 -4.163869,5.810184 -9.30044,12.864124 -6.094835,8.369902 -9.389983,12.823239 -9.485347,12.819283 -0.08037,-0.0033 -0.738769,-0.232038 -1.463107,-0.508233 z"
     id="path4901"
     inkscape:connector-curvature="0" />
  <path
     style="fill:#ffffff;fill-opacity:1;stroke:none;stroke-width:0.5;stroke-linejoin:miter;stroke-miterlimit:4;stroke-dasharray:none;stroke-opacity:1"
     d="M 15.104585,33.360845 14.63563,33.183938 14.789629,32.94888 c 0.0847,-0.129281 2.552947,-3.587649 5.484994,-7.685262 2.932047,-4.097613 5.33289,-7.478467 5.335206,-7.513009 0.0051,-0.07647 2.767014,-2.043534 2.811693,-2.002533 0.02559,0.02349 -12.605817,17.530126 -12.793483,17.731265 -0.02997,0.03213 -0.265528,-0.0212 -0.523454,-0.118496 z"
     id="path4903"
     inkscape:connector-curvature="0" />
  <path
     style="fill:#ffffff;fill-opacity:1;stroke:none;stroke-width:0.5;stroke-linejoin:miter;stroke-miterlimit:4;stroke-dasharray:none;stroke-opacity:1"
     d="m 6.6882234,30.255172 c -0.09664,-0.03538 -0.1889413,-0.07872 -0.2051142,-0.09632 -0.016173,-0.0176 5.9363178,-4.248128 13.2277578,-9.401168 C 27.002306,15.60464 34.224233,10.49986 35.759592,9.4137256 l 2.791563,-1.9747902 0.01381,0.1784775 c 0.0076,0.098163 0.0076,0.1825736 0,0.1875799 -0.04596,0.030285 -7.832248,5.5810542 -18.871761,13.4534982 -6.993225,4.986976 -12.7406778,9.065827 -12.7721157,9.064114 -0.031438,-0.0017 -0.1362289,-0.03206 -0.2328689,-0.06743 z"
     id="path4905"
     inkscape:connector-curvature="0" />
  <path
     style="fill:#ffffff;fill-opacity:1;stroke:none;stroke-width:0.5;stroke-linejoin:miter;stroke-miterlimit:4;stroke-dasharray:none;stroke-opacity:1"
     d="m 21.058158,48.726846 c -7.751563,-2.932142 -14.0937504,-5.36472 -14.0937504,-5.40573 0,-0.04101 0.9598944,-1.393549 2.1330987,-3.005644 2.2566907,-3.100907 2.1971577,-3.046712 2.9821127,-2.71466 l 0.374874,0.15858 -1.871706,2.492087 c -1.0294387,1.370647 -1.8287703,2.529101 -1.7762929,2.57434 0.052477,0.04524 5.9454139,2.306903 13.0954139,5.025921 7.15,2.719016 13.084374,4.977657 13.187499,5.019204 0.140609,0.05665 3.813762,-5.477918 14.6875,-22.130553 7.975,-12.21335 14.51626,-22.2464108 14.536133,-22.2956924 0.01987,-0.049282 -0.120751,-0.1227895 -0.3125,-0.1633509 C 63.808792,8.2407864 57.919539,6.9961691 50.913311,5.5155313 L 38.174715,2.823463 36.746361,3.8328114 c -0.785594,0.5551417 -1.445562,0.9907258 -1.466597,0.9679648 -0.05835,-0.063141 2.269442,-3.2779833 2.406622,-3.3237099 0.101825,-0.033942 5.882304,1.2704623 25.126019,5.6698561 1.929429,0.4410954 3.139919,0.774134 3.107667,0.8550029 C 65.891016,8.0747823 59.05389,18.456268 50.726459,31.071893 41.034141,45.755247 35.507627,54.018141 35.36879,54.033702 35.249505,54.047074 28.80972,51.658987 21.058158,48.726846 Z"
     id="path4907"
     inkscape:connector-curvature="0" />
  <path
     style="fill:#ffffff;fill-opacity:1;stroke:none;stroke-width:0.5;stroke-linejoin:miter;stroke-miterlimit:4;stroke-dasharray:none;stroke-opacity:1"
     d="M 11.069247,43.109923 9.6115872,42.548087 11.242003,40.34124 c 0.896729,-1.213766 1.668544,-2.249591 1.715145,-2.301832 0.06471,-0.07254 2.774707,0.817607 2.987877,0.981418 0.06213,0.04775 -3.260963,4.678536 -3.346571,4.6635 -0.03935,-0.0069 -0.727494,-0.265393 -1.529207,-0.574403 z"
     id="path4909"
     inkscape:connector-curvature="0" />
  <path
     style="fill:#ffffff;fill-opacity:1;stroke:none;stroke-width:0.5;stroke-linejoin:miter;stroke-miterlimit:4;stroke-dasharray:none;stroke-opacity:1"
     d="M 36.941932,56.075601 35.992609,54.464489 51.259759,31.330735 C 59.65669,18.607171 66.557277,8.1969614 66.594397,8.1969369 c 0.06943,-4.56e-5 1.74501,2.9260821 1.74501,3.0473701 0,0.04889 -30.275718,46.23531 -30.426371,46.416245 -0.01198,0.01439 -0.448977,-0.69884 -0.971104,-1.584951 z"
     id="path4911"
     inkscape:connector-curvature="0" />
  <path
     style="fill:#ffffff;fill-opacity:1;stroke:none;stroke-width:0.5;stroke-linejoin:miter;stroke-miterlimit:4;stroke-dasharray:none;stroke-opacity:1"
     d="M 23.339408,52.528877 C 15.811283,49.625193 9.3987826,47.152858 9.0894076,47.0348 8.5637584,46.834212 8.4831849,46.737681 7.8595158,45.561329 7.4924503,44.868978 7.2232391,44.271394 7.2612686,44.233365 7.3151235,44.17951 27.968149,51.906974 34.284257,54.344193 l 1.257352,0.485178 0.805148,1.391658 c 0.915588,1.582542 0.925799,1.603297 0.784317,1.594068 -0.05729,-0.0037 -6.263542,-2.382535 -13.791666,-5.28622 z"
     id="path4913"
     inkscape:connector-curvature="0" />
  <path
     style="fill:#ffffff;fill-opacity:1;stroke:none;stroke-width:0.5;stroke-linejoin:miter;stroke-miterlimit:4;stroke-dasharray:none;stroke-opacity:1"
     d="m 29.41084,41.875524 c -0.0489,-0.666138 -0.04279,-1.252688 0.01358,-1.303445 0.05637,-0.05076 7.377899,-6.769588 16.270072,-14.930734 8.892172,-8.161145 16.197848,-14.808184 16.234835,-14.771197 0.03699,0.03699 -0.685302,1.217559 -1.605087,2.623495 l -1.672335,2.556245 -14.1875,13.149128 c -7.803125,7.23202 -14.362361,13.315299 -14.576081,13.518398 l -0.388581,0.36927 -0.08891,-1.21116 z"
     id="path4915"
     inkscape:connector-curvature="0" />
</svg>
