<?xml version="1.0" encoding="UTF-8" standalone="no"?>
<!-- Created with Inkscape (http://www.inkscape.org/) -->

<svg
   xmlns:dc="http://purl.org/dc/elements/1.1/"
   xmlns:cc="http://creativecommons.org/ns#"
   xmlns:rdf="http://www.w3.org/1999/02/22-rdf-syntax-ns#"
   xmlns:svg="http://www.w3.org/2000/svg"
   xmlns="http://www.w3.org/2000/svg"
   xmlns:sodipodi="http://sodipodi.sourceforge.net/DTD/sodipodi-0.dtd"
   xmlns:inkscape="http://www.inkscape.org/namespaces/inkscape"
   id="svg4136"
   version="1.1"
   inkscape:version="0.91 r13725"
   width="692.0238"
   height="893.22235"
   viewBox="0 0 692.0238 893.22235"
   sodipodi:docname="rpi.svg">
  <metadata
     id="metadata4142">
    <rdf:RDF>
      <cc:Work
         rdf:about="">
        <dc:format>image/svg+xml</dc:format>
        <dc:type
           rdf:resource="http://purl.org/dc/dcmitype/StillImage" />
        <dc:title></dc:title>
      </cc:Work>
    </rdf:RDF>
  </metadata>
  <defs
     id="defs4140" />
  <sodipodi:namedview
     pagecolor="#ffffff"
     bordercolor="#666666"
     borderopacity="1"
     objecttolerance="10"
     gridtolerance="10"
     guidetolerance="10"
     inkscape:pageopacity="0"
     inkscape:pageshadow="2"
     inkscape:window-width="1920"
     inkscape:window-height="1017"
     id="namedview4138"
     showgrid="false"
     fit-margin-top="0"
     fit-margin-left="0"
     fit-margin-right="0"
     fit-margin-bottom="0"
     inkscape:zoom="0.47374302"
     inkscape:cx="-117.54611"
     inkscape:cy="297.54088"
     inkscape:window-x="-8"
     inkscape:window-y="-8"
     inkscape:window-maximized="1"
     inkscape:current-layer="svg4136" />
  <path
     style="fill:#ffffff"
     d="m 320.6838,891.68311 c -28.2908,-5.86494 -56.10419,-20.78359 -76.2318,-40.88951 -5.91354,-5.90716 -9.27071,-8.06744 -17.42303,-11.2113 -21.01641,-8.10479 -48.83666,-23.7004 -70.87701,-39.73261 -4.46875,-3.25058 -12.90625,-8.20177 -18.75,-11.00263 C 96.092729,769.04788 65.823174,729.37921 56.636204,683.0024 c -1.0978,-5.54178 -4.49123,-16.44256 -7.54096,-24.22396 -3.04973,-7.78142 -7.71567,-22.03549 -10.36874,-31.67573 -3.39693,-12.34312 -5.73736,-18.51101 -7.91239,-20.85198 C 20.742654,595.41084 8.8396843,572.13509 4.1382543,554.08723 -0.55939465,536.05389 -1.3546347,510.27611 2.2514548,492.92645 9.2080643,459.45671 28.333794,428.6505 53.278054,410.7369 c 8.54807,-6.13876 12.87246,-15.5697 12.87893,-28.0873 0.0255,-49.35726 28.546355,-98.33337 70.932476,-121.80557 4.98437,-2.7602 9.0625,-5.19417 9.0625,-5.40882 0,-0.21463 -3.8298,-1.55352 -8.51066,-2.97528 -11.05885,-3.35903 -16.245,-6.98571 -19.88909,-13.90848 -2.44448,-4.64383 -4.42306,-6.35658 -11.34311,-9.81909 -12.527021,-6.26801 -19.007146,-13.28115 -19.007146,-20.57056 0,-2.2778 -2.28015,-4.76025 -9.33678,-10.1652 -10.7623,-8.24325 -14.08998,-12.93324 -15.23387,-21.4704 -0.66074,-4.93128 -1.94488,-7.34058 -6.70351,-12.57717 -6.32963,-6.96541 -9.27307,-14.84889 -7.97234,-21.35256 0.59458,-2.9729 -0.33579,-5.23642 -4.88131,-11.87582 -6.05892,-8.84997 -7.87189,-15.44909 -5.99742,-21.83036 1.00613,-3.42514 0.63569,-5.03363 -2.44693,-10.625005 -4.82968,-8.760235 -5.01428,-17.948287 -0.51862,-25.812669 2.05197,-3.589569 2.72407,-5.961879 1.95245,-6.891623 -0.64717,-0.779786 -1.82578,-3.995643 -2.61913,-7.14635 -1.78295,-7.080723 -0.12919,-14.273443 4.56423,-19.851257 4.87521,-5.79386 9.23129,-7.51194 19.04604,-7.51194 8.21278,0 8.87978,-0.214621 11.3208,-3.642715 4.34389,-6.100439 12.44382,-9.13869 26.159055,-9.812158 9.353741,-0.459302 12.604301,-1.103092 14.559401,-2.883565 4.43132,-4.035528 11.77654,-6.3417214 19.22958,-6.0375454 5.86938,0.239544 7.92038,-0.281797 12.16856,-3.093111 6.92874,-4.58521439 12.11794,-5.18119539 24.0541,-2.762617 9.92621,2.011308 10.2206,1.999412 15.35611,-0.620532 6.75059,-3.4438904 15.15023,-2.84598139 25.49384,1.814719 6.27796,2.82877 8.15776,3.186865 11.01887,2.099068 6.58265,-2.502716 13.88197,-1.558218 22.4428,2.90399 5.26857,2.7461674 8.6769,3.8420894 9.77833,3.1441424 2.58786,-1.639876 11.91607,-1.31022 16.44257,0.581075 2.2256,0.929913 7.79102,4.867413 12.36759,8.749999 7.17435,6.08644 9.02965,7.05925 13.46311,7.05925 7.4214,0 13.40728,3.587609 23.06195,13.822068 14.11862,14.966476 26.48766,35.919489 33.90099,57.427931 2.18075,6.327015 2.98954,7.571775 3.65486,5.625005 9.06704,-26.530334 18.02184,-42.91913 32.88987,-60.193997 10.24205,-11.900037 17.58972,-16.681007 25.63636,-16.681007 5.68951,0 6.72505,-0.505322 13.22319,-6.452613 9.7028,-8.880288 16.11606,-11.566496 25.31842,-10.604658 6.38607,0.667475 8.01102,0.329615 14.28328,-2.9697854 7.55891,-3.976221 17.10434,-4.998596 22.03452,-2.360037 2.03357,1.088328 4.04345,0.691167 9.97634,-1.971355 10.63889,-4.77444339 19.36898,-5.4344834 26.46226,-2.000684 5.57624,2.699408 5.68908,2.70318 16.19216,0.541226 11.84828,-2.43884639 17.51029,-1.5897464 24.13208,3.618946 2.9252,2.300967 4.81871,2.729727 10.58761,2.39742 7.45074,-0.429185 14.75634,1.8284254 19.29653,5.9631024 1.95029,1.776088 5.19459,2.42361 14.40795,2.875643 13.70986,0.672645 21.37866,3.427609 26.5072,9.52254 3.1144,3.70124 3.82556,3.940255 11.72389,3.940255 6.70088,0 9.48511,0.63101 13.71063,3.107332 9.61664,5.635723 13.31508,19.057349 8.0794,29.320124 -2.10604,4.128166 -2.20615,5.041023 -0.69079,6.298665 0.97472,0.808942 2.71298,3.934145 3.86279,6.944898 2.57807,6.750575 1.71135,14.03291 -2.5654,21.55495 -2.64156,4.646015 -2.94587,6.384225 -2.30997,13.194005 0.81094,8.68411 -0.5146,12.43344 -7.5674,21.40474 -3.41601,4.34523 -3.8401,5.73981 -3.47254,11.41923 0.50454,7.79592 -1.64215,12.59961 -9.16379,20.50606 -4.58582,4.82045 -5.43357,6.55611 -5.92701,12.1348 -0.71571,8.09178 -4.44656,13.27214 -15.37305,21.34581 -4.9144,3.6313 -7.99685,6.8227 -8.0285,8.31224 -0.0282,1.32981 -1.25802,4.91049 -2.73284,7.95706 -2.80497,5.7943 -13.12323,13.67164 -21.55153,16.45323 -2.93798,0.96962 -4.65563,2.7016 -6.2395,6.29153 -1.20204,2.72448 -4.17242,6.59137 -6.60085,8.59308 -4.04383,3.33326 -18.46383,8.91225 -23.03548,8.91225 -1.05234,0 -2.87462,0.70312 -4.04955,1.5625 -1.88389,1.37794 -0.78704,2.44842 9.2856,9.0625 14.35598,9.42669 34.27803,29.9523 42.70298,43.99675 12.25956,20.43676 19.0503,42.52057 20.48808,66.62825 1.07082,17.95437 3.16435,21.88975 17.90795,33.66287 29.31714,23.41045 46.43304,55.37678 50.28638,93.91682 3.27239,32.72947 -6.77063,67.90252 -26.93504,94.33293 -5.68919,7.45709 -7.0362,10.29604 -8.89638,18.75 -1.20564,5.4793 -3.78883,15.02488 -5.74042,21.21238 -2.36313,7.49226 -3.82273,15.42526 -4.36976,23.75 -1.53252,23.32139 -6.41062,41.31696 -16.57423,61.14326 -16.84051,32.851 -48.15585,60.29575 -82.14105,71.98838 -3.86411,1.32945 -14.54455,7.4335 -23.73431,13.56455 -16.20999,10.81468 -38.22485,22.81122 -53.91009,29.37717 -5.66181,2.37008 -9.74331,5.37459 -15.625,11.50204 -10.45087,10.88754 -23.60386,20.68195 -37.83491,28.17386 -12.778,6.72697 -18.17795,8.84967 -32.0014,12.57961 -12.46578,3.36363 -50.01063,4.36401 -62.96816,1.67779 z m 59.21816,-30.56167 c 11.57044,-3.35704 28.39357,-11.63096 37.84391,-18.61234 8.73335,-6.4517 21.05025,-18.9486 25.97978,-26.35945 8.60006,-12.92898 2.15616,-23.98359 -18.82369,-32.29232 -17.01364,-6.73798 -21.80476,-7.75054 -54.37917,-11.49244 -14.23947,-1.63573 -42.5872,0.0474 -61.76883,3.66731 -28.31951,5.3445 -49.92309,16.26269 -55.11225,27.85308 -3.3812,7.55215 -1.39416,12.90908 8.86191,23.89118 16.31388,17.46874 37.70448,29.57492 62.39834,35.31481 11.06419,2.57179 43.32961,1.41619 55,-1.96983 z M 214.21687,771.62791 c 7.00722,-3.47736 15.09254,-14.50286 16.92265,-23.07646 3.75431,-17.58784 -0.58865,-41.43125 -11.49224,-63.09391 -9.74051,-19.35195 -15.19885,-27.30433 -29.04217,-42.31222 -16.91325,-18.33606 -33.34788,-30.22983 -50.04969,-36.22106 -9.35337,-3.35522 -28.01291,-4.24351 -34.78797,-1.6561 -6.644621,2.53761 -15.208946,10.58033 -17.859106,16.7714 -6.05407,14.143 -6.74229,40.43824 -1.60993,61.51189 2.82148,11.58514 10.978005,30.0754 17.467576,39.59776 16.52751,24.25141 45.91367,43.80846 74.88597,49.83804 11.60548,2.41528 29.32335,1.73807 35.56491,-1.35934 z m 310.90438,-0.43427 c 67.70112,-17.58618 106.6348,-85.93392 86.63937,-152.09469 -5.21655,-17.26051 -11.38805,-24.1815 -24.66897,-27.66481 -7.54373,-1.97858 -8.68132,-1.97589 -18.96487,0.0446 -16.79108,3.29916 -28.62305,9.94053 -48.05573,26.974 -25.01949,21.93051 -48.37599,59.85613 -55.10238,89.47367 -3.60567,15.87641 -3.92417,19.89195 -2.54406,32.07496 1.98781,17.54757 8.24237,27.32185 20.7194,32.37911 5.1946,2.1055 8.14109,2.39553 19.25795,1.89559 7.21875,-0.32464 17.44242,-1.71175 22.71929,-3.08248 z M 377.23022,737.28582 c 19.82533,-5.53868 33.01812,-12.80932 46.1937,-25.45768 10.81475,-10.38198 16.00967,-17.77235 21.49477,-30.57881 6.15891,-14.37967 8.02513,-25.00243 7.08978,-40.35566 -1.69655,-27.84761 -16.517,-52.41732 -42.10651,-69.80523 -9.39895,-6.38653 -15.82612,-9.03704 -31.79832,-13.11336 -12.4938,-3.18859 -15.04013,-3.43142 -29.98985,-2.85985 -13.18045,0.50392 -18.38964,1.28322 -26.96183,4.03355 -30.06439,9.64593 -49.23076,25.74148 -62.4649,52.45682 -6.05196,12.2169 -7.87062,20.86385 -8.03351,38.19585 -0.2224,23.66587 7.77285,42.27491 26.0961,60.73897 15.96099,16.08366 34.83692,25.74049 56.95147,29.13608 11.70769,1.79766 32.65529,0.64719 43.5291,-2.39068 z M 70.448364,595.85981 c 8.48721,-3.86702 23.409735,-35.78786 27.539025,-58.90883 1.00923,-5.65099 2.654911,-14.82735 3.657061,-20.39193 4.22976,-23.4864 3.65563,-58.13979 -1.2531,-75.63436 -2.323881,-8.28224 -8.531736,-16.14324 -12.738966,-16.13137 -4.14883,0.0113 -9.7062,3.13604 -19.36374,10.88617 -16.33665,13.11007 -28.0332,30.58649 -35.38597,52.87196 -3.22886,9.78634 -3.50677,12.15432 -3.5209,30 -0.0118,14.82697 0.51153,21.28224 2.22915,27.5 6.21465,22.49704 24.91284,51.25 33.32812,51.25 1.2899,0 3.7691,-0.64874 5.50932,-1.44164 z m 560.341206,-2.94522 c 4.27989,-2.99776 17.36056,-21.07923 21.4536,-29.65544 15.66359,-32.82009 14.48598,-69.34815 -3.25461,-100.95345 -10.75632,-19.16269 -38.29864,-43.19406 -48.40081,-42.23096 -7.78744,0.74242 -11.86404,13.84651 -12.82373,41.22145 -1.72911,49.3229 14.75156,115.55877 32.46082,130.46012 4.18111,3.51818 6.78753,3.80393 10.56473,1.15828 z M 250.30162,567.64587 c 28.60513,-10.00675 53.59964,-32.85902 68.20246,-62.35697 17.83313,-36.02321 14.49568,-81.64451 -7.969,-108.93214 -15.79626,-19.18759 -37.96231,-29.4247 -63.75812,-29.44592 -49.55153,-0.0408 -96.25004,40.96338 -107.5807,94.46246 -2.57834,12.17396 -2.5393,34.1196 0.0817,45.92815 6.70919,30.22717 29.86849,54.51425 59.6434,62.54781 7.30672,1.97143 12.1924,2.37741 24.73059,2.05504 13.62507,-0.35031 17.0361,-0.89537 26.64966,-4.25843 z m 248.79491,-1.05169 c 35.64869,-9.08467 57.86123,-37.63689 60.42835,-77.67522 2.79755,-43.63216 -23.36523,-90.68749 -62.53927,-112.48059 -14.94821,-8.31591 -26.91488,-11.83137 -42.70865,-12.54658 -17.07025,-0.773 -25.31568,0.72291 -38.79071,7.03752 -18.362,8.60473 -32.7695,25.37429 -39.94654,46.49564 -3.0851,9.07912 -3.6382,12.87179 -4.08364,28.0015 -0.71437,24.26477 1.7986,35.3756 13.14288,58.10996 8.11463,16.26203 8.9625,17.42466 22.80301,31.26843 12.39639,12.39931 16.09554,15.28841 26.875,20.98981 6.875,3.63628 15.33439,7.43703 18.79865,8.4461 14.98105,4.36373 34.26311,5.34978 46.02092,2.35343 z m 95.54548,-181.60349 c 0.98556,-28.17512 -11.49434,-59.39667 -32.06054,-80.20734 -15.02772,-15.20637 -31.60621,-24.7568 -53.30451,-30.70731 -10.70164,-2.9348 -43.99203,-3.38843 -52.96171,-0.72168 -5.29138,1.57317 -5.4402,1.7564 -4.77182,5.87519 0.88043,5.42545 5.7142,12.394 17.30453,24.9469 13.91595,15.07166 43.02195,42.58711 52.01404,49.17164 4.3777,3.2056 12.7185,9.61903 18.53511,14.25207 5.81661,4.63304 12.38785,9.34149 14.60276,10.46324 2.2149,1.12174 5.00199,2.89405 6.19354,3.93846 1.19154,1.04443 7.37904,4.62933 13.75,7.96644 8.47286,4.43811 12.75842,5.98568 15.95855,5.76282 l 4.375,-0.30467 0.36505,-10.43576 z m -479.74005,3.81402 c 38.77301,-18.46622 115.3427,-85.44142 122.51021,-107.1592 0.80723,-2.44594 1.19432,-5.15958 0.86018,-6.03032 -0.94322,-2.45799 -15.32389,-4.56374 -31.16673,-4.56374 -43.84143,0 -82.41615,24.51564 -101.0111,64.19624 -6.796751,14.50387 -9.948001,27.42043 -10.836911,44.41898 l -0.74467,14.24023 6.132011,-0.61626 c 3.37261,-0.33895 9.78826,-2.35762 14.25701,-4.48593 z m 271.72741,-34.59732 c 20.48986,-4.19719 38.56598,-13.1157 46.6184,-23.0009 7.43823,-9.13122 9.5253,-14.34515 8.69275,-21.7163 -1.04534,-9.25512 -4.88776,-16.33424 -13.58861,-25.03509 -14.14723,-14.14723 -32.14608,-24.55621 -51.57495,-29.82651 -14.79905,-4.01442 -42.26185,-4.04419 -56.25,-0.061 -29.38065,8.36631 -57.77625,29.68685 -61.57141,46.23026 -3.69706,16.11576 7.12258,31.97202 29.07141,42.60436 21.45337,10.39233 36.62805,13.63602 64.375,13.76058 15.86712,0.0713 22.06405,-0.46385 34.22741,-2.95541 z M 209.31423,246.71066 c 14.43765,-2.34171 31.58449,-7.31407 41.43673,-12.01611 15.61994,-7.45471 28.68436,-21.56631 33.56234,-36.2525 l 2.12282,-6.39123 -6.07958,-6.23343 C 252.6985,157.45945 200.72658,121.98344 143.02696,92.076295 c -10.3125,-5.345228 -18.0526,-9.73125 -17.20021,-9.746721 2.2176,-0.04025 32.54868,11.376501 49.26098,18.542046 16.17342,6.93449 48.13557,22.76349 62.93923,31.17015 15.39477,8.74234 40.92949,25.79788 51.97876,34.71845 5.47805,4.42268 10.67935,8.04123 11.55844,8.04123 2.88225,0 12.60475,-6.97719 18.13669,-13.01548 6.86087,-7.48887 10.08866,-14.77306 11.03448,-24.90166 2.06475,-22.11092 -14.99485,-61.375683 -35.07387,-80.726812 -4.02181,-3.876025 -4.49913,-4.048603 -5.18576,-1.875 -0.41594,1.316672 -1.59188,4.310258 -2.61322,6.652415 l -1.85697,4.258468 -3.92745,-4.883468 c -2.1601,-2.685907 -8.58783,-9.664717 -14.28383,-15.508467 l -10.35638,-10.625 -0.0179,5.394676 c -0.0206,6.194688 -1.77964,10.230324 -4.45908,10.230324 -1.01921,0 -5.44534,-3.796875 -9.83581,-8.4375 -4.39049,-4.640625 -9.71555,-9.448517 -11.83349,-10.684205 l -3.8508,-2.246705 0.76035,3.801716 c 0.80021,4.001053 -1.50219,11.316694 -3.56162,11.316694 -0.66504,0 -4.1003,-2.529105 -7.63393,-5.620234 -5.52845,-4.836152 -21.41306,-14.379766 -23.93402,-14.379766 -0.4619,0 0.32347,1.633709 1.7453,3.630462 2.86969,4.030117 3.20749,6.620964 1.32249,10.143133 -1.19343,2.229931 -1.75866,2.094264 -10.3125,-2.47526 -7.92219,-4.232081 -23.81217,-10.048335 -27.45201,-10.048335 -0.69507,0 0.77043,2.25162 3.25668,5.003601 4.72091,5.225483 5.42372,7.343128 3.1813,9.58555 -0.9522,0.952203 -4.64789,0.27512 -12.79001,-2.34324 -6.29797,-2.025316 -14.26162,-4.015285 -17.69699,-4.422155 l -6.24613,-0.739761 3.41114,4.053909 c 3.73918,4.443765 4.42274,8.552368 1.60291,9.634438 -0.99452,0.381634 -4.79139,-0.169193 -8.43749,-1.224061 -10.83183,-3.133796 -23.68993,-4.781179 -30.654731,-3.927487 l -6.525445,0.799838 5.190255,4.937374 c 7.523501,7.156926 6.07702,7.836391 -16.892115,7.934841 l -19.16705,0.08215 4.19632,5.842377 c 3.76777,5.245733 8.48124,15.300656 10.95206,23.363297 0.90485,2.952662 0.8962,2.955189 -8.49626,2.480891 l -9.40204,-0.474781 2.08486,3.548866 c 1.94194,3.305592 12.74484,14.100417 20.55896,20.543587 1.8705,1.54233 3.4009,3.61724 3.4009,4.61091 0,2.4977 -10.02875,3.88015 -15.16329,2.09024 -2.19565,-0.76541 -4.25463,-1.12913 -4.57549,-0.80827 -0.32086,0.32086 5.93909,7.06365 13.911,14.98398 12.95027,12.86645 14.24126,14.53606 12.11826,15.67225 -1.30687,0.69941 -5.08498,1.29327 -8.3958,1.31969 l -6.01968,0.048 6.25,5.62205 c 3.4375,3.09212 10.60938,8.54807 15.937505,12.12432 5.32813,3.57626 9.687501,6.86274 9.687501,7.30329 0,1.26155 -6.443651,3.47924 -11.250001,3.87189 l -4.375005,0.3574 6.250005,4.68785 c 3.4375,2.57832 12.013081,7.64082 19.056841,11.25 7.04377,3.60918 12.80939,6.96957 12.8125,7.46755 0.01,1.67186 -7.32968,4.71908 -11.49476,4.772 l -4.12458,0.0524 4.375,2.39266 c 4.4582,2.43817 22.58141,8.76287 32.1875,11.2329 2.92187,0.7513 5.3125,1.81965 5.3125,2.3741 0,1.66162 -4.09199,4.80009 -8.75,6.71107 l -4.375,1.79487 9.375,2.16631 c 5.15625,1.19147 14.73121,2.58572 21.27771,3.09832 6.54649,0.5126 12.97819,1.53387 14.29265,2.26948 2.26716,1.26876 2.19903,1.521 -1.32611,4.909 -2.04384,1.96433 -4.81929,4.24155 -6.16766,5.06049 -3.67734,2.23346 18.40862,2.09466 32.58568,-0.20477 z m 314.36487,-0.41227 c -4.33662,-2.97044 -7.52714,-6.26724 -7.52714,-7.77788 0,-2.02871 5.84269,-3.71824 12.89387,-3.7285 7.59109,-0.0112 19.15828,-1.76909 27.10613,-4.1197 l 5.625,-1.66362 -5.9375,-2.65833 c -3.401,-1.5227 -5.9375,-3.48936 -5.9375,-4.60362 0,-1.06992 0.2081,-1.94529 0.46245,-1.94529 2.23356,0 27.29631,-8.22306 32.94746,-10.81003 l 7.21509,-3.3029 -5.25433,-0.99342 c -5.71345,-1.08023 -10.37067,-3.17986 -10.37067,-4.67544 0,-0.5191 4.41735,-3.0068 9.81635,-5.52822 5.39899,-2.52142 14.25836,-7.55932 19.6875,-11.19532 l 9.87115,-6.61091 -6.39252,-0.78465 c -12.0535,-1.4795 -11.98373,-2.27475 1.00755,-11.48359 6.43458,-4.56115 13.62326,-10.27806 15.97482,-12.70426 l 4.27556,-4.41126 -5.63128,0 c -3.09722,0 -6.64942,-0.74446 -7.89378,-1.65436 -2.07426,-1.51674 -1.15827,-2.72865 11.01109,-14.56854 7.30046,-7.1028 13.27356,-13.43903 13.27356,-14.08051 0,-0.66712 -2.12849,-0.80673 -4.97284,-0.32618 -6.87605,1.1617 -12.52716,-0.23485 -12.52716,-3.09581 0,-1.29647 3.55016,-5.1557 8.24536,-8.96318 6.68042,-5.417365 16.74443,-16.665288 16.75755,-18.728895 0.001,-0.251641 -4.2292,-0.272043 -9.40178,-0.04534 l -9.40469,0.412193 3.06722,-8.148882 c 3.59237,-9.544037 4.92178,-12.188137 9.51539,-18.925502 l 3.40906,-5 -18.96194,-0.07982 c -10.42907,-0.0439 -19.69277,-0.531496 -20.586,-1.08354 -1.19752,-0.740116 -0.23998,-2.413969 3.64609,-6.37359 l 5.27014,-5.369874 -6.7157,-0.823609 c -7.17235,-0.879612 -19.17942,0.638112 -29.27466,3.70039 -7.87913,2.39005 -10.11628,2.380102 -11.04845,-0.04914 -0.91064,-2.37306 2.16096,-8.649001 5.16989,-10.563231 4.07218,-2.590663 -12.06027,-0.106963 -22.93848,3.531542 -5.65026,1.889874 -10.88651,3.2317 -11.6361,2.981836 -2.84824,-0.949408 -1.31326,-6.795599 2.8871,-10.995962 2.3375,-2.3375 3.96557,-4.25 3.61793,-4.25 -5.30194,0 -23.90681,7.029385 -31.86608,12.039811 -4.26614,2.685562 -4.7799,2.753563 -6.65291,0.880554 -2.50568,-2.505675 -1.54263,-7.313445 2.30622,-11.513129 l 2.71984,-2.967764 -3.125,0.940653 c -5.83688,1.756949 -11.93111,5.374741 -20.97776,12.453253 -4.9641,3.884137 -9.51413,6.760162 -10.11118,6.391164 -2.59201,-1.601952 -4.2749,-8.306741 -2.86284,-11.405866 0.769,-1.687772 1.03948,-3.068676 0.60107,-3.068676 -1.92523,0 -14.29964,10.387744 -18.54243,15.565496 -2.56191,3.126478 -5.40211,5.684504 -6.31156,5.684504 -2.58938,0 -5.5453,-5.145612 -5.5453,-9.653133 0,-2.253277 -0.47021,-4.096867 -1.04492,-4.096867 -1.27721,0 -15.36779,14.643361 -22.02967,22.893884 -5.35784,6.635503 -5.6583,6.538256 -8.94138,-2.893884 l -1.52283,-4.375 -5.83818,6.25 c -7.96226,8.52391 -17.6396,22.96577 -22.54229,33.640739 -17.43588,37.964255 -13.83839,63.794105 11.07933,79.549225 l 7.36691,4.65799 12.04902,-9.44559 c 31.9954,-25.08216 79.29011,-51.51308 125.79901,-70.303465 14.72343,-5.948517 36.28144,-13.724474 38.04699,-13.723519 0.38665,2.1e-4 -9.98449,5.697237 -23.04699,12.660059 C 496.86163,124.90021 451.7887,155.68919 425.25987,182.2386 l -10.26708,10.27506 2.33207,6.13752 c 8.51225,22.40243 26.59813,36.43178 57.04078,44.24697 16.25678,4.17341 24.74918,5.32995 39.91132,5.43531 12.12898,0.0842 12.40805,0.0239 9.40214,-2.03507 z"
     id="path4146"
     inkscape:connector-curvature="0" />
</svg>
