<?xml version="1.0" encoding="UTF-8" standalone="no"?>
<!-- Created with Inkscape (http://www.inkscape.org/) -->

<svg
   xmlns:dc="http://purl.org/dc/elements/1.1/"
   xmlns:cc="http://creativecommons.org/ns#"
   xmlns:rdf="http://www.w3.org/1999/02/22-rdf-syntax-ns#"
   xmlns:svg="http://www.w3.org/2000/svg"
   xmlns="http://www.w3.org/2000/svg"
   xmlns:sodipodi="http://sodipodi.sourceforge.net/DTD/sodipodi-0.dtd"
   xmlns:inkscape="http://www.inkscape.org/namespaces/inkscape"
   id="svg4136"
   version="1.1"
   inkscape:version="0.91 r13725"
   width="572.12799"
   height="630.05597"
   viewBox="0 0 572.12799 630.05597"
   sodipodi:docname="wii.svg">
  <metadata
     id="metadata4142">
    <rdf:RDF>
      <cc:Work
         rdf:about="">
        <dc:format>image/svg+xml</dc:format>
        <dc:type
           rdf:resource="http://purl.org/dc/dcmitype/StillImage" />
        <dc:title></dc:title>
      </cc:Work>
    </rdf:RDF>
  </metadata>
  <defs
     id="defs4140" />
  <sodipodi:namedview
     pagecolor="#ffffff"
     bordercolor="#666666"
     borderopacity="1"
     objecttolerance="10"
     gridtolerance="10"
     guidetolerance="10"
     inkscape:pageopacity="0"
     inkscape:pageshadow="2"
     inkscape:window-width="1366"
     inkscape:window-height="705"
     id="namedview4138"
     showgrid="false"
     fit-margin-top="0"
     fit-margin-left="0"
     fit-margin-right="0"
     fit-margin-bottom="0"
     inkscape:zoom="0.828125"
     inkscape:cx="290.70818"
     inkscape:cy="317.47108"
     inkscape:window-x="-8"
     inkscape:window-y="-8"
     inkscape:window-maximized="1"
     inkscape:current-layer="svg4136" />
  <path
     style="fill:#ffffff"
     d="m 383.78322,628.20064 c -15.53678,-4.85807 -26.7509,-18.79339 -32.2427,-40.06669 -4.94288,-19.14697 -4.92954,-51.19867 0.0333,-79.78459 2.32319,-13.38192 1.60831,-20.597 -2.47768,-25.00585 -11.09541,-11.97215 -53.1488,1.6371 -107.59304,34.81908 -47.11646,28.71595 -58.63019,35.31333 -78.75,45.12395 -51.15806,24.94513 -80.415687,26.7761 -92.743399,5.80395 -3.12638,-5.31854 -3.49766,-7.11775 -3.42367,-16.59049 0.0616,-7.88923 0.81801,-12.55614 2.93764,-18.125 9.722302,-25.54326 10.986802,-30.86909 13.281132,-55.9375 0.69188,-7.55967 1.05448,-8.44428 3.48523,-8.50262 1.49216,-0.0359 -0.70972,-1.33763 -4.89306,-2.89291 -4.18334,-1.55526 -9.35675,-4.07435 -11.496482,-5.59797 -12.29019,-8.75135 -25.82025,-31.14932 -32.10885,-53.15363 -7.25279,-25.37808 -10.20683,-80.49488 -6.42736,-119.92243 4.81652,-50.24602 2.06612,-66.71737 -15.48629,-92.74294 C 1.4745711,174.26855 -2.2340589,161.1998 1.1845811,143.84726 c 1.10669,-5.61742 3.7138,-13.84981 5.79357,-18.29417 8.0595899,-17.22296 25.4399899,-38.988431 37.8372799,-47.383651 8.4981,-5.75476 14.71886,-7.54688 26.062562,-7.5083 12.97314,0.0441 21.12505,3.35722 33.642107,13.6728 13.80981,11.380957 26.35789,23.872411 26.35789,26.238941 0,5.80633 -5.40194,25.21604 -7.53335,27.06815 -1.27604,1.10881 -4.74367,2.40286 -7.70586,2.87567 -8.4783,1.35326 -11.01293,3.61735 -10.99858,9.82461 0.0134,5.76919 4.788,17.30974 9.03841,21.84619 3.5984,3.84056 6.36474,3.56342 16.69699,-1.67275 l 8.8726,-4.49645 12.3774,3.28561 c 16.22025,4.30573 17.37839,5.51603 20.44493,21.36589 7.44212,38.46565 6.77711,86.03595 -1.91085,136.68872 -8.51813,49.66262 -20.46805,88.21788 -34.47567,111.23233 -6.95447,11.42617 -18.15713,22.76577 -25.75093,26.0657 -12.067547,5.24404 -12.504527,5.47112 -9.36759,4.86812 2.53282,-0.48686 2.8125,-0.0501 2.8125,4.39162 0,17.77801 -5.224527,44.87013 -11.190047,58.02683 -4.95143,10.92015 -7.04138,21.28382 -5.22135,25.89179 4.28471,10.84815 28.754787,6.19154 67.526567,-12.85018 18.53159,-9.10129 30.90248,-16.22122 77.00983,-44.32214 76.14171,-46.40588 123.98981,-53.97547 138.60038,-21.92662 3.3032,7.24569 3.45843,21.36569 0.45781,41.64055 -2.67139,18.0502 -2.84242,44.70813 -0.36974,57.6316 5.22415,27.30417 16.90706,36.09534 39.98136,30.08524 22.31325,-5.81186 42.11473,-23.27155 46.39237,-40.90586 l 0.83384,-3.4375 -12.63551,0 -12.63551,0 0,-281.875 0,-281.875 70,0 70,0 0,281.875 0,281.875 -47.3301,0 -47.33009,0 -0.79622,5.80907 c -1.43734,10.48657 -8.83293,23.55269 -19.36049,34.20513 -8.12786,8.22426 -11.52208,10.61453 -22.6831,15.97377 -20.34355,9.76847 -37.52361,12.62794 -50.84477,8.46267 z M 506.44253,459.48082 c 11.62715,-4.85813 8.2662,-21.98082 -4.31454,-21.98082 -12.39407,0 -15.949,16.98631 -4.58907,21.9278 4.91273,2.137 3.92993,2.13115 8.90361,0.053 z m 3.29073,-36.71076 c 3.1093,-2.77815 3.89473,-4.47114 3.89473,-8.39506 0,-3.92393 -0.78543,-5.61691 -3.89473,-8.39506 -2.40665,-2.15035 -5.31242,-3.47994 -7.60527,-3.47994 -2.29285,0 -5.19863,1.32959 -7.60528,3.47994 -3.10929,2.77815 -3.89472,4.47113 -3.89472,8.39506 0,3.92392 0.78543,5.61691 3.89472,8.39506 2.40665,2.15035 5.31243,3.47994 7.60528,3.47994 2.29285,0 5.19862,-1.32959 7.60527,-3.47994 z M 474.68385,272.8125 c 8.75053,-7.82252 1.36058,-22.19498 -10.11603,-19.67429 -9.18054,2.01639 -12.08987,13.33736 -5.04511,19.63185 5.07295,4.5327 10.12238,4.54683 15.16114,0.0425 z m 35,0 c 8.75053,-7.82252 1.36058,-22.19498 -10.11603,-19.67429 -4.73689,1.0404 -8.82784,5.83495 -8.96053,10.50164 -0.31478,11.07105 10.91351,16.46999 19.07656,9.17265 z m 34.84823,0.20139 c 3.04427,-2.56159 3.84591,-4.22003 3.84591,-7.95643 0,-11.90571 -14.32393,-16.72453 -20.71587,-6.9692 -7.55275,11.52695 6.32118,23.80184 16.86996,14.92563 z m -35.80743,-66.83905 c 10.60025,-2.94371 18.30963,-14.63024 16.63634,-25.21877 -1.86094,-11.77593 -11.21039,-19.70607 -23.233,-19.70607 -12.02261,0 -21.37206,7.93014 -23.233,19.70607 -1.61721,10.2337 5.08889,21.08004 15.27957,24.71292 5.9073,2.10588 8.46784,2.19491 14.55009,0.50585 z M 514.16424,105 c 0.0886,-5.156254 0.22931,-10.078124 0.3125,-10.937504 0.10875,-1.12305 3.31525,-1.562497 11.40125,-1.562497 l 11.25,0 0,-11.875 0,-11.875 -11.25,0 -11.25,0 -0.017,-9.0625 c -0.0284,-15.06047 0.28886,-14.6875 -12.49505,-14.6875 -12.87112,0 -12.48795,-0.42504 -12.48795,13.85224 l 0,9.89776 -11.25,0 -11.25,0 0,11.82809 0,11.8281 11.5625,0.359397 11.5625,0.35941 -0.43715,9.605174 c -0.24044,5.28284 -0.054,10.22522 0.41443,10.98306 0.54766,0.88614 4.9417,1.2501 12.31215,1.01983 L 514.00299,114.375 514.16424,105 Z m -394.41776,59.28287 c -4.71566,-3.96796 -7.75478,-12.63978 -5.03329,-14.36198 0.98439,-0.62294 2.80211,-1.14123 4.03938,-1.15175 2.89217,-0.0246 8.70735,-3.03177 10.84605,-5.60874 0.97682,-1.177 1.71325,-5.38171 1.78395,-10.18575 0.11275,-7.65619 0.39256,-8.42441 4.36023,-11.96879 3.64085,-3.25241 4.94195,-3.69329 9.21007,-3.12082 10.47742,1.40532 20.65011,13.96758 21.82777,26.95515 0.83746,9.23557 -1.08476,14.54338 -6.23057,17.20438 -5.17402,2.67559 -11.27469,1.25965 -17.04887,-3.95696 l -4.72762,-4.27112 -4.12056,3.04005 c -2.26632,1.67203 -5.30845,4.74111 -6.7603,6.82016 -1.45185,2.07905 -3.01844,3.78982 -3.48132,3.8017 -0.46288,0.0125 -2.5621,-1.4261 -4.66492,-3.19553 z"
     id="path4146"
     inkscape:connector-curvature="0" />
</svg>
